<!--
  File: assets/images/cat-realistic.svg
  Purpose: Local realistic-style cat illustration for portal visuals.
-->
<svg xmlns="http://www.w3.org/2000/svg" viewBox="0 0 800 520" role="img" aria-label="Realistic-style tabby cat portrait">
  <defs>
    <linearGradient id="catBg" x1="0" y1="0" x2="1" y2="1">
      <stop offset="0" stop-color="#dbeafe"/>
      <stop offset="1" stop-color="#f0fdf4"/>
    </linearGradient>
    <radialGradient id="catFur" cx="45%" cy="35%" r="70%">
      <stop offset="0" stop-color="#f5d0a6"/>
      <stop offset="0.6" stop-color="#d3a06a"/>
      <stop offset="1" stop-color="#8f5f35"/>
    </radialGradient>
    <radialGradient id="catEar" cx="50%" cy="60%" r="70%">
      <stop offset="0" stop-color="#f8d5cd"/>
      <stop offset="1" stop-color="#d39e95"/>
    </radialGradient>
    <radialGradient id="catEye" cx="50%" cy="50%" r="60%">
      <stop offset="0" stop-color="#bbf7d0"/>
      <stop offset="1" stop-color="#15803d"/>
    </radialGradient>
    <filter id="catShadow" x="-30%" y="-30%" width="160%" height="160%">
      <feDropShadow dx="0" dy="8" stdDeviation="9" flood-color="#1f2937" flood-opacity="0.25"/>
    </filter>
  </defs>
  <rect width="800" height="520" fill="url(#catBg)"/>
  <ellipse cx="400" cy="460" rx="260" ry="36" fill="#0f172a" opacity="0.12"/>
  <g filter="url(#catShadow)">
    <path d="M266 149L335 66l30 126z" fill="url(#catFur)"/>
    <path d="M534 149L465 66l-30 126z" fill="url(#catFur)"/>
    <path d="M282 136L333 82l19 66z" fill="url(#catEar)"/>
    <path d="M517 136L467 82l-19 66z" fill="url(#catEar)"/>
    <ellipse cx="400" cy="250" rx="183" ry="155" fill="url(#catFur)"/>
    <ellipse cx="400" cy="288" rx="112" ry="88" fill="#f1ddc4" opacity="0.95"/>
    <path d="M252 240c64-58 233-82 295 2" fill="none" stroke="#6b4226" stroke-width="14" stroke-linecap="round" opacity="0.55"/>
    <path d="M256 278c95-40 200-45 287-4" fill="none" stroke="#6b4226" stroke-width="10" stroke-linecap="round" opacity="0.45"/>
    <ellipse cx="336" cy="240" rx="29" ry="32" fill="url(#catEye)"/>
    <ellipse cx="463" cy="240" rx="29" ry="32" fill="url(#catEye)"/>
    <ellipse cx="337" cy="243" rx="8" ry="17" fill="#111827"/>
    <ellipse cx="464" cy="243" rx="8" ry="17" fill="#111827"/>
    <circle cx="327" cy="232" r="5" fill="#fff" opacity="0.85"/>
    <circle cx="454" cy="232" r="5" fill="#fff" opacity="0.85"/>
    <path d="M400 266l-17 22h34z" fill="#f59e9e"/>
    <path d="M400 288c-28 0-39 14-39 28 0 8 6 15 15 15 9 0 15-8 24-16 8 8 14 16 24 16 9 0 15-7 15-15 0-14-12-28-39-28z" fill="#7c2d12" opacity="0.65"/>
    <g stroke="#f8fafc" stroke-width="4" stroke-linecap="round" opacity="0.85">
      <path d="M243 278h103"/>
      <path d="M234 302h115"/>
      <path d="M554 278H451"/>
      <path d="M566 302H451"/>
    </g>
  </g>
</svg>
